# Blender 4.0.2
# www.blender.org
mtllib calçada.mtl
o Cube
v 1.000000 0.055459 -1.000000
v 1.000000 -0.055459 -1.000000
v 1.000000 0.055459 1.000000
v 1.000000 -0.055459 1.000000
v -1.000000 0.055459 -1.000000
v -1.000000 -0.055459 -1.000000
v -1.000000 0.055459 1.000000
v -1.000000 -0.055459 1.000000
vn -0.0000 1.0000 -0.0000
vn -0.0000 -0.0000 1.0000
vn -1.0000 -0.0000 -0.0000
vn -0.0000 -1.0000 -0.0000
vn 1.0000 -0.0000 -0.0000
vn -0.0000 -0.0000 -1.0000
vt 0.004922 -0.008828
vt 1.003863 0.000000
vt 0.996050 0.999957
vt 0.003906 0.996050
vt 0.010877 0.989640
vt 0.993141 0.991129
vt 0.986770 -0.005295
vt 0.016304 -0.028733
vt 0.983357 0.999165
vt -0.031529 -0.029443
vt 0.001000 1.023543
vt 0.993309 -0.013396
vt 0.992274 0.003906
vt -0.005529 -0.007402
vt 1.000086 0.996050
s 0
usemtl Material
f 1/1/1 5/2/1 7/3/1 3/4/1
f 4/5/2 3/6/2 7/7/2 8/8/2
f 8/9/3 7/10/3 5/11/3 6/12/3
f 6/13/4 2/14/4 4/5/4 8/15/4
f 2/14/5 1/1/5 3/6/5 4/5/5
f 6/12/6 5/11/6 1/1/6 2/14/6
